<svg version="1.1" viewBox="0.0 0.0 38400.0 38400.0" fill="none" stroke="none" stroke-linecap="square" stroke-miterlimit="10" xmlns:xlink="http://www.w3.org/1999/xlink" xmlns="http://www.w3.org/2000/svg"><clipPath id="p.0"><path d="m0 0l38400.0 0l0 38400.0l-38400.0 0l0 -38400.0z" clip-rule="nonzero"/></clipPath><g clip-path="url(#p.0)"><path fill="#000000" fill-opacity="0.0" d="m0 0l38400.0 0l0 38400.0l-38400.0 0z" fill-rule="evenodd"/><path fill="#faebd7" d="m2400.0 19200.0l0 0c0 -9278.384 7521.616 -16800.0 16800.0 -16800.0l0 0c4455.6367 0 8728.783 1769.9951 11879.395 4920.606c3150.6094 3150.6108 4920.6055 7423.7573 4920.6055 11879.395l0 0c0 9278.385 -7521.615 16800.0 -16800.0 16800.0l0 0c-9278.384 0 -16800.0 -7521.615 -16800.0 -16800.0z" fill-rule="evenodd"/><path stroke="#000000" stroke-width="1.0" stroke-linejoin="round" stroke-linecap="butt" d="m2400.0 19200.0l0 0c0 -9278.384 7521.616 -16800.0 16800.0 -16800.0l0 0c4455.6367 0 8728.783 1769.9951 11879.395 4920.606c3150.6094 3150.6108 4920.6055 7423.7573 4920.6055 11879.395l0 0c0 9278.385 -7521.615 16800.0 -16800.0 16800.0l0 0c-9278.384 0 -16800.0 -7521.615 -16800.0 -16800.0z" fill-rule="evenodd"/><path fill="#ee6e62" d="m8169.064 30645.604l0 0c-3148.0474 -2991.7832 -4928.6064 -7132.1953 -4928.6064 -11460.703l15959.543 0z" fill-rule="evenodd"/><path stroke="#000000" stroke-width="1.0" stroke-linejoin="round" stroke-linecap="butt" d="m8169.064 30645.604l0 0c-3148.0474 -2991.7832 -4928.6064 -7132.1953 -4928.6064 -11460.703l15959.543 0z" fill-rule="evenodd"/><path fill="#3852a8" d="m7941.657 7974.872l0 0c3014.6416 -2981.4219 7102.2344 -4643.775 11355.446 -4618.0635l-97.0918 15858.289z" fill-rule="evenodd"/><path stroke="#000000" stroke-width="1.0" stroke-linejoin="round" stroke-linecap="butt" d="m7941.657 7974.872l0 0c3014.6416 -2981.4219 7102.2344 -4643.775 11355.446 -4618.0635l-97.0918 15858.289z" fill-rule="evenodd"/><path fill="#191c27" d="m3242.4407 19465.258l0 0c-68.14258 -4292.1787 1617.7268 -8428.457 4672.457 -11463.863l11285.103 11213.717z" fill-rule="evenodd"/><path stroke="#000000" stroke-width="1.0" stroke-linejoin="round" stroke-linecap="butt" d="m3242.4407 19465.258l0 0c-68.14258 -4292.1787 1617.7268 -8428.457 4672.457 -11463.863l11285.103 11213.717z" fill-rule="evenodd"/><path fill="#404864" d="m19315.576 35088.49l0 0c-4188.129 26.179688 -8218.774 -1584.5977 -11222.461 -4484.8633l11122.068 -11373.406z" fill-rule="evenodd"/><path stroke="#000000" stroke-width="1.0" stroke-linejoin="round" stroke-linecap="butt" d="m19315.576 35088.49l0 0c-4188.129 26.179688 -8218.774 -1584.5977 -11222.461 -4484.8633l11122.068 -11373.406z" fill-rule="evenodd"/><path fill="#ee6e62" d="m30230.936 7754.396l0 0c3148.0488 2991.7837 4928.6074 7132.196 4928.6074 11460.703l-15959.543 0z" fill-rule="evenodd"/><path stroke="#000000" stroke-width="1.0" stroke-linejoin="round" stroke-linecap="butt" d="m30230.936 7754.396l0 0c3148.0488 2991.7837 4928.6074 7132.196 4928.6074 11460.703l-15959.543 0z" fill-rule="evenodd"/><path fill="#3852a8" d="m30458.342 30425.129l0 0c-3014.6406 2981.4219 -7102.2324 4643.7734 -11355.445 4618.0625l97.0918 -15858.289z" fill-rule="evenodd"/><path stroke="#000000" stroke-width="1.0" stroke-linejoin="round" stroke-linecap="butt" d="m30458.342 30425.129l0 0c-3014.6406 2981.4219 -7102.2324 4643.7734 -11355.445 4618.0625l97.0918 -15858.289z" fill-rule="evenodd"/><path fill="#191c27" d="m35157.56 18934.742l0 0c68.14453 4292.1777 -1617.7266 8428.457 -4672.457 11463.863l-11285.102 -11213.717z" fill-rule="evenodd"/><path stroke="#000000" stroke-width="1.0" stroke-linejoin="round" stroke-linecap="butt" d="m35157.56 18934.742l0 0c68.14453 4292.1777 -1617.7266 8428.457 -4672.457 11463.863l-11285.102 -11213.717z" fill-rule="evenodd"/><path fill="#404864" d="m19084.424 3311.5127l0 0c4188.129 -26.179932 8218.773 1584.5981 11222.461 4484.863l-11122.068 11373.406z" fill-rule="evenodd"/><path stroke="#000000" stroke-width="1.0" stroke-linejoin="round" stroke-linecap="butt" d="m19084.424 3311.5127l0 0c4188.129 -26.179932 8218.773 1584.5981 11222.461 4484.863l-11122.068 11373.406z" fill-rule="evenodd"/></g></svg>